<svg width="26" height="26" viewBox="0 0 26 26" fill="none" xmlns="http://www.w3.org/2000/svg">
<path d="M12.9058 14.0095C12.9327 14.0095 12.9596 14.0095 12.9919 14.0095C13.0027 14.0095 13.0135 14.0095 13.0242 14.0095C13.0404 14.0095 13.0619 14.0095 13.0781 14.0095C14.6556 13.9826 15.9317 13.428 16.8739 12.3674C18.9468 10.0306 18.6022 6.02485 18.5645 5.64258C18.4299 2.77283 17.0731 1.39988 15.9532 0.759163C15.1187 0.279975 14.1441 0.0215366 13.0565 0H13.0189C13.0135 0 13.0027 0 12.9973 0H12.965C12.3674 0 11.1936 0.0969145 10.0684 0.737627C8.93768 1.37834 7.55934 2.75129 7.42474 5.64258C7.38705 6.02485 7.04247 10.0306 9.11536 12.3674C10.0522 13.428 11.3282 13.9826 12.9058 14.0095ZM8.8623 5.77718C8.8623 5.76103 8.86769 5.74487 8.86769 5.73411C9.04536 1.87368 11.7859 1.4591 12.9596 1.4591H12.9812C12.9919 1.4591 13.0081 1.4591 13.0242 1.4591C14.478 1.49141 16.9493 2.08366 17.1162 5.73411C17.1162 5.75026 17.1162 5.76641 17.1216 5.77718C17.127 5.81487 17.5038 9.47608 15.7917 11.4036C15.1133 12.1682 14.2088 12.545 13.0189 12.5558C13.0081 12.5558 13.0027 12.5558 12.9919 12.5558C12.9812 12.5558 12.9758 12.5558 12.965 12.5558C11.7805 12.545 10.8706 12.1682 10.1976 11.4036C8.4908 9.48685 8.85692 5.80948 8.8623 5.77718Z" fill="#212121"/>
<path d="M24.0563 20.6535C24.0563 20.6481 24.0563 20.6427 24.0563 20.6373C24.0563 20.5943 24.0509 20.5512 24.0509 20.5027C24.0186 19.4367 23.9486 16.9438 21.6119 16.147C21.5958 16.1416 21.5742 16.1362 21.5581 16.1308C19.1298 15.5116 17.1108 14.1118 17.0892 14.0956C16.7608 13.8641 16.3085 13.9449 16.077 14.2733C15.8455 14.6017 15.9263 15.054 16.2547 15.2855C16.3462 15.3501 18.4891 16.8415 21.1704 17.5307C22.4249 17.9776 22.5649 19.3182 22.6026 20.5458C22.6026 20.5943 22.6026 20.6373 22.608 20.6804C22.6134 21.165 22.5811 21.9134 22.4949 22.3441C21.6227 22.8395 18.2038 24.5516 13.0027 24.5516C7.82314 24.5516 4.38268 22.8341 3.50507 22.3387C3.41892 21.908 3.38123 21.1596 3.392 20.675C3.392 20.632 3.39738 20.5889 3.39738 20.5404C3.43507 19.3128 3.57506 17.9722 4.82956 17.5253C7.51086 16.8361 9.65375 15.3394 9.74528 15.2801C10.0737 15.0486 10.1545 14.5963 9.92296 14.2679C9.69144 13.9395 9.23917 13.8587 8.91074 14.0902C8.8892 14.1064 6.88092 15.5063 4.44191 16.1254C4.42037 16.1308 4.40422 16.1362 4.38806 16.1416C2.05135 16.9438 1.98135 19.4367 1.94905 20.4974C1.94905 20.5458 1.94905 20.5889 1.94367 20.632C1.94367 20.6373 1.94367 20.6427 1.94367 20.6481C1.93828 20.9281 1.9329 22.3656 2.21826 23.0871C2.2721 23.2271 2.36901 23.3456 2.49823 23.4263C2.65976 23.534 6.53095 25.9999 13.0081 25.9999C19.4852 25.9999 23.3564 23.5286 23.5179 23.4263C23.6417 23.3456 23.744 23.2271 23.7979 23.0871C24.0671 22.371 24.0617 20.9335 24.0563 20.6535Z" fill="#212121"/>
</svg>
