<svg width="26" height="26" viewBox="0 0 26 26" fill="none" xmlns="http://www.w3.org/2000/svg">
<path d="M13 0C5.8318 0 0 5.8318 0 13C0 20.1682 5.8318 26 13 26C20.1682 26 26 20.1682 26 13C26 5.8318 20.1682 0 13 0ZM13 24.6996C6.54853 24.6996 1.3 19.451 1.3 12.9996C1.3 6.5481 6.54853 1.29957 13 1.29957C19.4519 1.29957 24.7 6.5481 24.7 12.9996C24.7 19.451 19.4519 24.6996 13 24.6996Z" fill="black"/>
<path d="M4.73071 12.4942C4.73071 12.255 4.53658 12.0609 4.29738 12.0609H1.98598C1.74678 12.0609 1.55264 12.255 1.55264 12.4942C1.55264 12.7334 1.74678 12.9276 1.98598 12.9276H4.29738C4.53658 12.9276 4.73071 12.7334 4.73071 12.4942Z" fill="black"/>
<path d="M20.6735 12.4942C20.6735 12.7334 20.8676 12.9276 21.1068 12.9276H23.4182C23.6574 12.9276 23.8515 12.7334 23.8515 12.4942C23.8515 12.255 23.6574 12.0609 23.4182 12.0609H21.1068C20.8676 12.0609 20.6735 12.255 20.6735 12.4942Z" fill="black"/>
<path d="M12.7292 5.02841C12.9684 5.02841 13.1625 4.83428 13.1625 4.59508V2.28368C13.1625 2.04448 12.9684 1.85034 12.7292 1.85034C12.49 1.85034 12.2958 2.04448 12.2958 2.28368V4.59508C12.2958 4.83428 12.49 5.02841 12.7292 5.02841Z" fill="black"/>
<path d="M12.7292 20.9712C12.49 20.9712 12.2958 21.1653 12.2958 21.4045V23.7159C12.2958 23.9556 12.49 24.1493 12.7292 24.1493C12.9684 24.1493 13.1625 23.9556 13.1625 23.7159V21.4045C13.1625 21.1653 12.9684 20.9712 12.7292 20.9712Z" fill="black"/>
<path d="M11.3624 5.22159C11.2844 4.99539 11.0379 4.87492 10.8117 4.95249C10.5855 5.03049 10.465 5.27662 10.5426 5.50325L13.1508 13.0918L7.3892 18.7113C7.2176 18.8781 7.21456 19.1528 7.38183 19.3236C7.46676 19.4107 7.579 19.4544 7.6921 19.4544C7.8013 19.4544 7.9105 19.4137 7.99456 19.3318L13.9529 13.5212C14.0729 13.4038 14.1145 13.2287 14.0604 13.0701L11.3624 5.22159Z" fill="black"/>
</svg>
