<svg width="26" height="26" viewBox="0 0 26 26" fill="none" xmlns="http://www.w3.org/2000/svg">
<path d="M13.0235 0.0638428C5.8661 0.0638428 0.0639648 5.86597 0.0639648 13.0233C0.0719025 20.1774 5.86942 25.9749 13.0235 25.9828C20.1808 25.9828 25.983 20.1807 25.983 13.0233C25.983 5.86597 20.1808 0.0638428 13.0235 0.0638428ZM21.7032 20.7868L20.3543 19.438L19.438 20.3543L20.7869 21.7031C18.8205 23.4687 16.3102 24.5098 13.6714 24.6542V22.7431H12.3754V24.6542C9.73669 24.5098 7.22636 23.4687 5.25991 21.7031L6.60876 20.3543L5.69244 19.438L4.3436 20.7868C2.57803 18.8205 1.53689 16.3101 1.39256 13.6713H3.30368V12.3754H1.39272C1.53706 9.73665 2.57819 7.22632 4.34376 5.25987L5.6926 6.60872L6.60892 5.6924L5.26008 4.34356C7.22644 2.57799 9.73677 1.53693 12.3756 1.39252V3.30364H13.6715V1.3926C16.3102 1.53693 18.8206 2.57807 20.787 4.34364L19.4382 5.69248L20.3545 6.6088L21.7033 5.25995C23.4689 7.22632 24.51 9.73665 24.6544 12.3755H22.7433V13.6714H24.6544C24.5099 16.31 23.4687 18.8204 21.7032 20.7868Z" fill="black"/>
<path d="M18.5665 7.30051C18.3488 7.15553 18.0654 7.15553 17.8479 7.30051L13.145 10.436C13.1045 10.4335 13.0647 10.4315 13.0235 10.4315C11.5921 10.4315 10.4316 11.592 10.4316 13.0234C10.4316 14.4549 11.5921 15.6153 13.0235 15.6153C14.4544 15.6139 15.614 14.4543 15.6154 13.0234C15.6154 12.9829 15.6136 12.9424 15.611 12.9026L18.7465 8.19909C18.9448 7.90127 18.8643 7.49895 18.5665 7.30051ZM14.3998 12.3824C14.3111 12.5214 14.2757 12.6876 14.2998 12.8507C14.3108 12.9077 14.3174 12.9654 14.3194 13.0234C14.3194 13.7392 13.7392 14.3194 13.0235 14.3194C12.3077 14.3194 11.7275 13.7392 11.7275 13.0234C11.7275 12.3077 12.3077 11.7275 13.0235 11.7275C13.0857 11.7299 13.1477 11.7371 13.2089 11.749C13.3681 11.7723 13.5303 11.736 13.6645 11.6471L15.8703 10.1766L14.3998 12.3824Z" fill="black"/>
</svg>
