<svg width="38" height="18" viewBox="0 0 38 18" fill="none" xmlns="http://www.w3.org/2000/svg">
<path d="M19.004 6.66583L19.614 6.05583C21.4101 4.25972 22.952 2.97194 24.2398 2.1925C25.5615 1.37917 27.1543 0.9725 29.0181 0.9725C31.6276 0.9725 33.7456 1.735 35.3723 3.26C36.999 4.785 37.8123 6.7675 37.8123 9.2075C37.8123 11.7492 36.982 13.7656 35.3215 15.2567C33.6948 16.7139 31.6954 17.4425 29.3231 17.4425C27.4254 17.4425 25.7479 17.0189 24.2906 16.1717C22.8673 15.3244 21.3084 14.0536 19.614 12.3592L19.004 11.7492L18.394 12.3592C16.6995 14.0536 15.1237 15.3244 13.6665 16.1717C12.2431 17.0189 10.5826 17.4425 8.68481 17.4425C6.31258 17.4425 4.29619 16.7139 2.63564 15.2567C1.00897 13.7656 0.195639 11.7492 0.195639 9.2075C0.195639 6.7675 1.00897 4.785 2.63564 3.26C4.26231 1.735 6.38036 0.9725 8.98981 0.9725C10.8537 0.9725 12.4295 1.37917 13.7173 2.1925C15.039 2.97194 16.5979 4.25972 18.394 6.05583L19.004 6.66583ZM20.3765 9.2075L21.9523 10.7325C23.274 12.0203 24.4601 12.9861 25.5106 13.63C26.5951 14.24 27.7981 14.545 29.1198 14.545C30.7126 14.545 32.0512 14.0367 33.1356 13.02C34.2201 12.0033 34.7623 10.7325 34.7623 9.2075C34.7623 7.6825 34.2201 6.41167 33.1356 5.395C32.0512 4.37833 30.6787 3.87 29.0181 3.87C28.0015 3.87 26.9679 4.12417 25.9173 4.6325C24.9006 5.14083 24.189 5.58139 23.7823 5.95417C23.4095 6.29305 22.7995 6.86917 21.9523 7.6825L20.3765 9.2075ZM17.6315 9.2075L16.0556 7.6825C15.2084 6.86917 14.5815 6.29305 14.1748 5.95417C13.802 5.58139 13.0904 5.14083 12.0398 4.6325C11.0231 4.12417 10.0065 3.87 8.98981 3.87C7.32925 3.87 5.95675 4.37833 4.87231 5.395C3.78786 6.41167 3.24564 7.6825 3.24564 9.2075C3.24564 10.7325 3.78786 12.0033 4.87231 13.02C5.95675 14.0367 7.29536 14.545 8.88814 14.545C10.2098 14.545 11.3959 14.24 12.4465 13.63C13.5309 12.9861 14.734 12.0203 16.0556 10.7325L17.6315 9.2075Z" fill="#212121"/>
</svg>
