<svg width="136" height="80" viewBox="0 0 136 80" fill="none" xmlns="http://www.w3.org/2000/svg">
<path d="M125.4 36.7C125.1 36.7 124.9 36.9 124.9 37.1C124.9 37.1 124.9 37.1 124.9 37.2V41.7H119.2V37.2C119.2 36.9 119 36.7 118.8 36.7C118.8 36.7 118.8 36.7 118.7 36.7H117.1C116.8 36.7 116.7 36.9 116.7 37.2V48.8C116.7 49 116.9 49.3 117.1 49.3H118.7C119 49.3 119.2 49.1 119.2 48.9C119.2 48.9 119.2 48.9 119.2 48.8V44H124.9V48.8C124.9 49.1 125.1 49.3 125.3 49.3C125.3 49.3 125.3 49.3 125.4 49.3H127C127.2 49.3 127.4 49 127.4 48.8V37.2C127.4 37 127.2 36.7 127 36.7H125.4ZM113.2 31.5C113.5 31.5 113.7 31.7 113.7 31.9C113.7 31.9 113.7 31.9 113.7 32V33.4C113.7 33.7 113.5 33.9 113.3 33.9C113.3 33.9 113.3 33.9 113.2 33.9H103.5C103.2 33.9 103 33.7 103 33.5C103 33.5 103 33.5 103 33.4V32C103 31.7 103.2 31.5 103.5 31.5H113.2ZM50.2 31.5C49.9 31.5 49.7 31.7 49.7 32V44C49.7 47.2 50.7 49.4 54.7 49.4H55.2C60.9 49.4 61.8 45.6 61.8 43.7C61.8 42 61.2 37.9 55.5 37.9H52.3V34H59.7C60 34 60.2 33.8 60.2 33.6C60.2 33.6 60.2 33.6 60.2 33.5V32C60.2 31.7 60 31.5 59.7 31.5H50.2ZM55.6 40.2C57.9 40.2 59.2 41.5 59.2 43.6C59.2 45.7 57.9 47 55.6 47H54.8C53 47 52.3 46.3 52.3 44.3V40.2H55.6ZM91.8 36.9C91.6 37 91.5 37.1 91.5 37.3V38.7C91.5 38.8 91.6 39 91.7 39C91.8 39.1 92 39.1 92.1 39.1C93.2 38.7 94.4 38.5 95.6 38.5C97.6 38.5 98 39.1 98 40.5V40.8L95.2 41C90.7 41.3 90.5 44.2 90.5 45.1C90.5 47.7 91.9 49.4 95.3 49.4C96.5 49.4 97.6 49 98.6 48.4L98.8 48.9C98.9 49.1 99 49.2 99.2 49.2H100.1C100.3 49.2 100.5 49 100.5 48.8V40.6C100.5 37.6 98.9 36.2 95.6 36.2C94.3 36.2 93 36.5 91.8 36.9ZM93.1 45.2C93.1 44.3 93.3 43.4 95.1 43.2L97.9 42.9V46.2C97.1 46.7 96.2 47 95.2 47C94.3 47.3 93.4 46.8 93.2 45.9C93.1 45.7 93.1 45.4 93.1 45.2ZM72.5 49C72.6 49.2 72.7 49.3 72.9 49.3H74C74.2 49.3 74.4 49.1 74.4 48.9V37.2C74.4 36.9 74.2 36.7 74 36.7C74 36.7 74 36.7 73.9 36.7H72.4C72.1 36.7 71.9 36.9 71.9 37.1C71.9 37.1 71.9 37.1 71.9 37.2V45.4C71 46.4 69.8 47 68.5 47.1C66.9 47.1 66.2 46.2 66.2 44V37.2C66.2 36.9 66 36.7 65.8 36.7C65.8 36.7 65.8 36.7 65.7 36.7H64.2C63.9 36.7 63.7 36.9 63.7 37.1C63.7 37.1 63.7 37.1 63.7 37.2V44.8C63.7 47.6 65.2 49.5 68.1 49.5C69.6 49.4 71 48.9 72.2 47.9L72.5 49ZM111.8 49C111.9 49.2 112 49.3 112.2 49.3H113.3C113.5 49.3 113.7 49 113.7 48.8V37.2C113.7 36.9 113.5 36.7 113.3 36.7C113.3 36.7 113.3 36.7 113.2 36.7H111.7C111.4 36.7 111.2 36.9 111.2 37.1C111.2 37.1 111.2 37.1 111.2 37.2V45.4C110.3 46.4 109 47 107.7 47.1C106.1 47.1 105.4 46.2 105.4 44V37.2C105.4 36.9 105.2 36.7 105 36.7C105 36.7 105 36.7 104.9 36.7H103.4C103.1 36.7 102.9 36.9 102.9 37.1C102.9 37.1 102.9 37.1 102.9 37.2V44.8C102.9 47.6 104.4 49.5 107.3 49.5C108.8 49.4 110.2 48.9 111.4 47.9L111.8 49ZM78.4 44.9C78.2 46.6 77.8 47 76.4 47.2C76.2 47.2 76 47.5 76 47.7V49C76 49.2 76.2 49.5 76.4 49.5C79.2 49.5 80.6 48.2 80.9 44.8L81.2 41.8C81.4 39.7 81.8 39.1 83.7 39.1H85.8V48.9C85.8 49.2 86 49.4 86.2 49.4C86.2 49.4 86.2 49.4 86.3 49.4H87.8C88.1 49.4 88.3 49.2 88.3 48.9V37.2C88.3 36.9 88.1 36.7 87.8 36.7H83.6C80.1 36.7 79.1 38.7 78.8 41.6L78.4 44.9Z" fill="#201600"/>
<path d="M132 36.1C133 36 134 36.6 134.1 37.7C134.1 37.9 134.1 38.1 134.1 38.2C134.1 39.4 133.2 40.3 132 40.3C130.8 40.3 129.9 39.4 129.9 38.2C129.9 36.4 130.9 36.1 132 36.1ZM132 36.4C131 36.4 130.2 36.6 130.2 38.2C130.2 39.8 130.9 40 132 40C133.1 40 133.8 39.8 133.8 38.2C133.8 36.6 133.1 36.4 132 36.4ZM131.6 39.3V38.4H132.2L132.7 39.3L132.8 39.4H133.1C133.1 39.4 133.2 39.4 133.1 39.3L132.6 38.4C132.9 38.3 133 38.1 133 37.8C133 37.4 132.8 37.1 132.2 37.1H131.3C131.2 37.1 131.2 37.1 131.2 37.2V39.4C131.2 39.5 131.2 39.5 131.3 39.5L131.6 39.3ZM131.6 37.4H132.2C132.4 37.4 132.6 37.5 132.6 37.7C132.6 37.7 132.6 37.7 132.6 37.8C132.6 37.9 132.5 38.1 132.2 38.1H131.6V37.4Z" fill="#201600"/>
<path d="M51.8 55C52 55.9 52 56.9 51.8 57.8C51.7 58.1 51.6 58.4001 51.5 58.7001C51.4 58.9001 51.2 59.1001 51 59.2001C50.8 59.3001 50.7 59.4 50.5 59.5C50.3 59.5 50.1 59.6 50 59.6C49.8 59.6 49.6 59.6 49.5 59.5C49.3 59.4 49.1 59.4001 49 59.2001C48.8 59.1001 48.6 58.9001 48.5 58.7001C48.3 58.4001 48.2 58.1 48.2 57.8C48.1 57.3 48.1 56.9001 48.1 56.4001C48.1 56.2001 48.1 56.1001 48.1 55.9001C48.1 55.7001 48.1 55.5 48.2 55.3C48.2 55 48.3 54.8 48.4 54.6C48.5 54.4 48.6 54.2 48.7 54C48.8 53.8 49 53.6 49.3 53.5C49.6 53.4 49.8 53.3 50.1 53.3C50.3 53.3 50.5 53.3001 50.6 53.4001C50.8 53.5001 51 53.5001 51.1 53.7001C51.3 53.8001 51.5 54.0001 51.6 54.2001C51.6 54.4001 51.7 54.7 51.8 55ZM49.9 59C50.1 59 50.2 59.0001 50.4 58.9001C50.5 58.8001 50.6 58.8001 50.7 58.7001C50.8 58.6001 50.9 58.5 50.9 58.3C51 58.2 51 58.0001 51 57.9001C51 57.7001 51.1 57.6001 51.1 57.4001C51.1 57.2001 51.1 57.1001 51.1 56.9001V56.4001C51.1 56.1001 51.1 55.9 51.1 55.6C51.1 55.4 51 55.2 51 55C51 54.8 50.9 54.6001 50.8 54.4001C50.7 54.2001 50.6 54.1 50.4 54C50.2 53.9 50 53.8 49.8 53.8C49.6 53.8 49.5 53.8001 49.3 53.9001C49.2 54.0001 49.1 54 49 54.1C48.9 54.2 48.8 54.3 48.8 54.5C48.7 54.6 48.7 54.8001 48.7 54.9001C48.7 55.1001 48.6 55.2001 48.6 55.4001C48.6 55.6001 48.6 55.7001 48.6 55.9001C48.6 56.1001 48.6 56.1 48.6 56.3V56.4001C48.6 57.0001 48.6 57.5 48.8 58.1C48.9 58.6 49.4 59 49.9 59Z" fill="#201600"/>
<path d="M55.7 53.3V55.4C55.9 55.2 56.2 55.1 56.5 55.1C56.9 55.1 57.3 55.3 57.5 55.7C57.7 56.2 57.9 56.8 57.8 57.4C57.8 57.7 57.8 58.1 57.7 58.4C57.7 58.6 57.6 58.9 57.4 59.1C57.3 59.2 57.2 59.4 57 59.5C56.9 59.6 56.8 59.6 56.6 59.7C56.5 59.7 56.4 59.7 56.3 59.7C56 59.7 55.8 59.6 55.6 59.4V60.8H56.2C56.3 60.8 56.3 60.8 56.3 60.9V61.2C56.3 61.3 56.3 61.3 56.2 61.3H54.4C54.3 61.3 54.3 61.3 54.3 61.2V60.9C54.3 60.8 54.3 60.8 54.4 60.8H55V59.5C54.8 59.7 54.6 59.8 54.3 59.8C53.9 59.8 53.5 59.6 53.2 59.2C52.9 58.7 52.8 58.1 52.8 57.5C52.7 56.9 52.9 56.3 53.2 55.8C53.4 55.5 53.8 55.3 54.1 55.3C54.4 55.3 54.7 55.4 54.9 55.6V54H54.4C54.3 54 54.3 54 54.3 53.9V53.6C54.3 53.6 54.3 53.5 54.4 53.5H55.5C55.6 53.2 55.7 53.2 55.7 53.3ZM55 58.7V56C54.9 55.9 54.8 55.8 54.7 55.7C54.6 55.6 54.5 55.6 54.3 55.6C54 55.6 53.8 55.8 53.7 56C53.5 56.4 53.5 56.9 53.5 57.3C53.5 57.7 53.5 58.1 53.6 58.4C53.7 58.8 54 59 54.3 59C54.6 59.1 54.9 58.9 55 58.7ZM55.7 56V58.7C55.9 58.9 56.1 59 56.3 59C56.6 59 56.9 58.8 57 58.3C57.1 57.9 57.1 57.6 57.1 57.2C57.1 56.8 57.1 56.4 56.9 56C56.9 55.8 56.8 55.7 56.6 55.6C56.5 55.5 56.4 55.5 56.3 55.5C56.1 55.6 55.8 55.8 55.7 56Z" fill="#201600"/>
<path d="M59.1 55.7001H58.6C58.5 55.7001 58.5 55.7001 58.5 55.6001V55.3001C58.5 55.2001 58.5 55.2001 58.6 55.2001H59.7C59.8 55.2001 59.8 55.2001 59.8 55.3001V57.6001V58.5001L60.1 58.0001L60.3 57.7001L61.7 55.3001H61.8H62.3C62.4 55.3001 62.4 55.3001 62.4 55.4001V59.0001H62.9C62.9 59.0001 63 59.0001 63 59.1001V59.4001C63 59.5001 63 59.5001 62.9 59.5001H61.8C61.7 59.5001 61.7 59.5001 61.7 59.4001V57.1001V56.2001C61.6 56.5001 61.5 56.6001 61.4 56.7001C61.4 56.8001 61.3 56.9001 61.2 57.0001L59.8 59.4001H59.7H59.2C59.1 59.4001 59.1 59.4001 59.1 59.3001V55.7001Z" fill="#201600"/>
<path d="M66.3 58.9001V55.7001H65.8C65.7 55.7001 65.7 55.7001 65.7 55.6001V55.3001C65.7 55.2001 65.7 55.2001 65.8 55.2001H66.9C67 55.2001 67 55.2001 67 55.3001V59.0001H67.5V60.6001C67.5 60.7001 67.5 60.7001 67.4 60.7001H67C66.9 60.7001 66.9 60.7001 66.9 60.6001V59.5001H63.6C63.5 59.5001 63.5 59.5001 63.5 59.4001V59.0001C63.5 59.0001 63.5 58.9001 63.6 58.9001H64V55.7001H63.5C63.4 55.7001 63.4 55.7001 63.4 55.6001V55.3001C63.4 55.2001 63.4 55.2001 63.5 55.2001H64.6C64.7 55.2001 64.7 55.2001 64.7 55.3001V59.0001L66.3 58.9001Z" fill="#201600"/>
<path d="M68.7 55.7001H68.2C68.1 55.7001 68.1 55.7001 68.1 55.6001V55.3001C68.1 55.2001 68.1 55.2001 68.2 55.2001H69.3C69.4 55.2001 69.4 55.2001 69.4 55.3001V57.6001V58.5001L69.7 58.0001L69.9 57.7001L71.3 55.3001H71.4H71.9C72 55.3001 72 55.3001 72 55.4001V59.0001H72.5C72.6 59.0001 72.6 59.0001 72.6 59.1001V59.4001C72.6 59.5001 72.6 59.5001 72.5 59.5001H71.4C71.3 59.5001 71.3 59.5001 71.3 59.4001V57.1001V56.2001C71.2 56.5001 71.1 56.6001 71 56.7001C71 56.8001 70.9 56.9001 70.8 57.0001L69.4 59.4001H69.3H68.8C68.7 59.4001 68.7 59.4001 68.7 59.3001V55.7001Z" fill="#201600"/>
<path d="M73.5 55.3001H73.6C73.9 55.2001 74.3 55.1001 74.6 55.1001C74.9 55.1001 75.3 55.2001 75.6 55.3001C75.9 55.5001 76.1 55.9001 76 56.3001V58.0001C76 58.3001 76 58.6001 76.1 58.9001H76.5C76.6 58.9001 76.6 58.9001 76.6 59.0001V59.3001C76.6 59.4001 76.6 59.4001 76.5 59.4001H75.7C75.6 59.4001 75.6 59.4001 75.5 59.3001C75.4 59.2001 75.4 59.1001 75.4 59.0001C75.1 59.4001 74.6 59.6001 74.1 59.6001C73.8 59.6001 73.5 59.5001 73.3 59.3001C73.1 59.0001 73 58.7001 73 58.4001C73 58.1001 73.1 57.7001 73.3 57.4001C73.8 57.0001 74.5 56.8001 75.1 56.8001H75.3V56.5001C75.3 56.4001 75.3 56.3001 75.3 56.2001C75.3 56.1001 75.3 56.0001 75.2 55.9001C75.1 55.8001 75.1 55.7001 75 55.7001C74.9 55.7001 74.7 55.6001 74.6 55.6001C74.3 55.6001 73.9 55.7001 73.6 55.8001H73.5C73.5 55.8001 73.5 55.8001 73.4 55.8001L73.3 55.4001C73.3 55.4001 73.3 55.4001 73.3 55.3001C73.4 55.4001 73.4 55.4001 73.5 55.3001ZM75.4 58.5001V57.3001C75 57.3001 74.6 57.4001 74.2 57.5001C73.9 57.6001 73.8 57.9001 73.8 58.2001C73.8 58.4001 73.9 58.6001 74 58.8001C74.1 58.9001 74.3 59.0001 74.4 59.0001C74.8 59.0001 75.2 58.9001 75.4 58.5001Z" fill="#201600"/>
<path d="M79.9 58.9V55.7H78.8V55.9C78.8 56.6 78.8 57.2 78.7 57.9C78.7 58.2 78.6 58.6 78.4 58.9C78.3 59.2 78.1 59.4 77.8 59.5C77.6 59.6 77.4 59.6 77.2 59.6C77.1 59.6 77 59.6 77 59.5V59.2C77 59.1 77 59.1 77.1 59.1H77.2C77.3 59.1 77.5 59 77.6 59C77.7 58.9 77.8 58.8 77.9 58.7C78 58.6 78 58.4 78 58.3C78 58.1 78.1 57.9 78.1 57.7C78.2 57.1 78.2 56.5 78.2 55.9H77.7C77.6 55.9 77.6 55.9 77.6 55.8V55.5C77.6 55.4 77.6 55.4 77.7 55.4H80.5C80.6 55.4 80.6 55.4 80.6 55.5V59H81.1C81.1 59 81.2 59 81.2 59.1V59.4C81.2 59.5 81.2 59.5 81.1 59.5H79.4C79.3 59.5 79.3 59.5 79.3 59.4V59C79.3 58.9 79.3 58.9 79.4 58.9H79.9Z" fill="#201600"/>
<path d="M83.1 56.9001H83.8C84.2 56.9001 84.5 57.0001 84.8 57.2001C85.1 57.4001 85.3 57.8001 85.3 58.2001C85.3 58.6001 85.1 59.0001 84.8 59.2001C84.5 59.4001 84.1 59.5001 83.7 59.5001H81.9C81.8 59.5001 81.8 59.5001 81.8 59.4001V59.0001C81.8 58.9001 81.8 58.9001 81.9 58.9001H82.4V55.7001H81.9C81.8 55.7001 81.8 55.7001 81.8 55.6001V55.3001C81.8 55.2001 81.8 55.2001 81.9 55.2001H83C83.1 55.2001 83.1 55.2001 83.1 55.3001V56.9001ZM83.1 57.4001V58.9001H83.7C83.9 58.9001 84.2 58.8001 84.4 58.7001C84.7 58.4001 84.7 57.9001 84.3 57.6001C84.3 57.6001 84.3 57.6001 84.2 57.6001C84 57.5001 83.8 57.4001 83.6 57.5001H83.1V57.4001Z" fill="#201600"/>
<path d="M87 57.6001V59.0001H87.5C87.5 59.0001 87.6 59.0001 87.6 59.1001V59.4001C87.6 59.5001 87.6 59.5001 87.5 59.5001H85.8C85.7 59.5001 85.7 59.5001 85.7 59.4001V59.0001C85.7 58.9001 85.7 58.9001 85.8 58.9001H86.3V55.7001H85.8C85.7 55.7001 85.7 55.7001 85.7 55.6001V55.3001C85.7 55.2001 85.7 55.2001 85.8 55.2001H86.9C87 55.2001 87 55.2001 87 55.3001V57.0001H88.7V55.7001H88.2C88.1 55.7001 88.1 55.7001 88.1 55.6001V55.3001C88.1 55.2001 88.1 55.2001 88.2 55.2001H89.9C90 55.2001 90 55.2001 90 55.3001V55.6001C90 55.7001 90 55.7001 89.9 55.7001H89.4V58.9001H89.9C89.9 58.9001 90 58.9001 90 59.0001V59.3001C90 59.4001 90 59.4001 89.9 59.4001H88.8C88.7 59.4001 88.7 59.4001 88.7 59.3001V57.5001H87V57.6001Z" fill="#201600"/>
<path d="M92 56.9001H92.7C93.1 56.9001 93.4 57.0001 93.7 57.2001C94 57.4001 94.2 57.8001 94.2 58.2001C94.2 58.6001 94 59.0001 93.7 59.2001C93.4 59.4001 93 59.5001 92.6 59.5001H90.8C90.7 59.5001 90.7 59.5001 90.7 59.4001V59.0001C90.7 58.9001 90.7 58.9001 90.8 58.9001H91.3V55.7001H90.8C90.7 55.7001 90.7 55.7001 90.7 55.6001V55.3001C90.7 55.2001 90.7 55.2001 90.8 55.2001H91.9C92 55.2001 92 55.2001 92 55.3001V56.9001ZM92 57.4001V58.9001H92.6C92.9 58.9001 93.1 58.8001 93.3 58.7001C93.6 58.4001 93.5 57.9001 93.2 57.6001C93 57.5001 92.8 57.5001 92.6 57.5001L92 57.4001ZM94 55.6001V55.3001C94 55.2001 94 55.2001 94.1 55.2001H95.8C95.9 55.2001 95.9 55.2001 95.9 55.3001V55.6001C95.9 55.7001 95.9 55.7001 95.8 55.7001H95.3V58.9001H95.8C95.9 58.9001 95.9 58.9001 95.9 59.0001V59.3001C95.9 59.4001 95.9 59.4001 95.8 59.4001H94.7C94.6 59.4001 94.6 59.4001 94.6 59.3001V55.7001H94.1C94 55.7001 94 55.7001 94 55.6001Z" fill="#201600"/>
<path d="M97.1 55.7001H96.6C96.5 55.7001 96.5 55.7001 96.5 55.6001V55.3001C96.5 55.2001 96.5 55.2001 96.6 55.2001H97.7C97.8 55.2001 97.8 55.2001 97.8 55.3001V57.6001V58.5001L98 58.0001L98.2 57.7001L99.6 55.3001H99.7H100.2C100.3 55.3001 100.3 55.3001 100.3 55.4001V59.0001H100.8C100.8 59.0001 100.9 59.0001 100.9 59.1001V59.4001C100.9 59.5001 100.9 59.5001 100.8 59.5001H99.7C99.6 59.5001 99.6 59.5001 99.6 59.4001V57.0001V56.1001C99.5 56.4001 99.4 56.5001 99.3 56.6001C99.3 56.7001 99.2 56.8001 99.1 56.9001L97.7 59.3001H97.6H97.1C97 59.3001 97 59.3001 97 59.2001L97.1 55.7001ZM99.5 53.4001L99.8 53.5001C99.9 53.5001 99.9 53.5001 99.9 53.6001V53.8001C99.8 54.0001 99.7 54.2001 99.6 54.4001C99.3 54.6001 99 54.7001 98.7 54.7001C98.4 54.7001 98.1 54.6001 97.8 54.4001C97.6 54.2001 97.5 54.0001 97.5 53.8001C97.5 53.8001 97.5 53.7001 97.5 53.6001C97.5 53.5001 97.5 53.5001 97.6 53.5001L98 53.4001C98 53.4001 98.1 53.4001 98.1 53.5001V53.6001C98.1 53.7001 98.2 53.9001 98.3 54.0001C98.4 54.1001 98.6 54.1001 98.7 54.1001C99 54.1001 99.3 53.9001 99.3 53.6001V53.5001C99.3 53.4001 99.4 53.3001 99.5 53.4001Z" fill="#201600"/>
<path d="M104.8 55.7001V58.9001H105.3C105.3 58.9001 105.4 58.9001 105.4 59.0001V59.3001C105.4 59.4001 105.4 59.4001 105.3 59.4001H103.6C103.5 59.4001 103.5 59.4001 103.5 59.3001V59.0001C103.5 59.0001 103.5 58.9001 103.6 58.9001H104.1V55.7001H103.6C103.5 55.7001 103.5 55.7001 103.5 55.6001V55.3001C103.5 55.2001 103.5 55.2001 103.6 55.2001H107.6C107.7 55.2001 107.7 55.2001 107.7 55.3001V55.6001C107.7 55.7001 107.7 55.7001 107.6 55.7001H107.1V58.9001H107.6C107.7 58.9001 107.7 58.9001 107.7 59.0001V59.3001C107.7 59.4001 107.7 59.4001 107.6 59.4001H106.5C106.4 59.4001 106.4 59.4001 106.4 59.3001V55.7001H104.8Z" fill="#201600"/>
<path d="M108.8 55.3001H108.9C109.2 55.2001 109.6 55.1001 109.9 55.1001C110.2 55.1001 110.6 55.2001 110.9 55.3001C111.2 55.5001 111.4 55.9001 111.3 56.3001V58.0001C111.3 58.3001 111.3 58.6001 111.4 58.9001H111.9C112 58.9001 112 58.9001 112 59.0001V59.3001C112 59.4001 112 59.4001 111.9 59.4001H111.1C111 59.4001 111 59.4001 110.9 59.3001C110.8 59.2001 110.8 59.1001 110.8 59.0001C110.5 59.4001 110 59.6001 109.5 59.6001C109.2 59.6001 108.9 59.5001 108.7 59.3001C108.5 59.0001 108.4 58.7001 108.4 58.4001C108.4 58.1001 108.5 57.7001 108.7 57.4001C109.2 57.0001 109.9 56.8001 110.5 56.8001H110.7V56.5001C110.7 56.4001 110.7 56.3001 110.7 56.2001C110.7 56.1001 110.7 56.0001 110.6 55.9001C110.5 55.8001 110.5 55.7001 110.4 55.7001C110.3 55.7001 110.1 55.6001 110 55.6001C109.7 55.6001 109.3 55.7001 109 55.8001H108.9C108.9 55.8001 108.9 55.8001 108.8 55.8001L108.7 55.4001C108.7 55.4001 108.7 55.4001 108.7 55.3001C108.8 55.4001 108.7 55.4001 108.8 55.3001ZM110.8 58.5001V57.3001C110.4 57.3001 110 57.4001 109.6 57.5001C109.3 57.6001 109.2 57.9001 109.2 58.2001C109.2 58.4001 109.3 58.6001 109.4 58.8001C109.5 58.9001 109.7 59.0001 109.8 59.0001C110.1 59.0001 110.5 58.9001 110.8 58.5001Z" fill="#201600"/>
<path d="M114.5 60.9001V61.2001C114.5 61.3001 114.5 61.3001 114.4 61.3001H112.6C112.5 61.3001 112.5 61.3001 112.5 61.2001V60.9001C112.5 60.8001 112.5 60.8001 112.6 60.8001H113.1V56.3001C113.1 56.1001 113.1 56.0001 113.1 55.8001V55.7001H112.6C112.5 55.7001 112.5 55.7001 112.5 55.6001V55.3001C112.5 55.2001 112.5 55.2001 112.6 55.2001H113.4H113.5H113.6V55.3001V55.4001V55.5001V55.6001V55.7001C113.9 55.4001 114.4 55.2001 114.8 55.2001C115.3 55.2001 115.7 55.4001 115.9 55.8001C116.1 56.3001 116.3 56.8001 116.2 57.4001C116.2 57.8001 116.2 58.2001 116.1 58.6001C116 58.9001 115.9 59.1001 115.7 59.3001C115.6 59.4001 115.4 59.6001 115.2 59.6001C115 59.7001 114.9 59.7001 114.7 59.7001C114.3 59.7001 114 59.6001 113.7 59.3001V60.8001H114.3C114.3 60.8001 114.4 60.7001 114.5 60.8001C114.5 60.8001 114.5 60.8001 114.5 60.9001ZM113.8 56.1001V58.6001C114.1 58.8001 114.4 59.0001 114.7 59.0001C115 59.0001 115.3 58.8001 115.4 58.6001C115.5 58.2001 115.6 57.7001 115.6 57.3001C115.6 56.9001 115.6 56.5001 115.5 56.2001C115.4 55.9001 115.1 55.7001 114.8 55.7001C114.5 55.7001 114.1 55.8001 113.8 56.1001Z" fill="#201600"/>
<path d="M119.6 59.0001V59.3001C119.6 59.4001 119.6 59.4001 119.5 59.4001H117.8C117.7 59.4001 117.7 59.4001 117.7 59.3001V59.0001C117.7 59.0001 117.7 58.9001 117.8 58.9001H118.3V55.7001H117.5V56.6001C117.5 56.7001 117.5 56.7001 117.4 56.7001H117C116.9 56.7001 116.9 56.7001 116.9 56.6001V55.3001C116.9 55.2001 116.9 55.2001 117 55.2001H120.2C120.3 55.2001 120.3 55.2001 120.3 55.3001V56.7001C120.3 56.8001 120.3 56.8001 120.2 56.8001H119.8C119.7 56.8001 119.7 56.8001 119.7 56.7001V55.8001H119V59.0001H119.5C119.5 58.9001 119.6 59.0001 119.6 59.0001Z" fill="#201600"/>
<path d="M122.3 57.6001V59.0001H122.8C122.9 59.0001 122.9 59.0001 122.9 59.1001V59.4001C122.9 59.5001 122.9 59.5001 122.8 59.5001H121.1C121 59.5001 121 59.5001 121 59.4001V59.0001C121 58.9001 121 58.9001 121.1 58.9001H121.6V55.7001H121.1C121 55.7001 121 55.7001 121 55.6001V55.3001C121 55.2001 121 55.2001 121.1 55.2001H122.2C122.3 55.2001 122.3 55.2001 122.3 55.3001V57.0001H124.1V55.7001H123.6C123.5 55.7001 123.5 55.7001 123.5 55.6001V55.3001C123.5 55.2001 123.5 55.2001 123.6 55.2001H125.3C125.4 55.2001 125.4 55.2001 125.4 55.3001V55.6001C125.4 55.7001 125.4 55.7001 125.3 55.7001H124.8V58.9001H125.3C125.3 58.9001 125.4 58.9001 125.4 59.0001V59.3001C125.4 59.4001 125.4 59.4001 125.3 59.4001H124.2C124.1 59.4001 124.1 59.4001 124.1 59.3001V57.5001H122.3V57.6001Z" fill="#201600"/>
<path d="M129.2 58.7001L129.4 59.1C129.4 59.1 129.3 59.2 129.1 59.3C128.8 59.4 128.4 59.5 128.1 59.5C127.5 59.5 127 59.3 126.6 58.8C125.9 57.8 126 56.5 126.7 55.5C127 55.1 127.5 54.9 127.9 55C128.3 55 128.7 55.1001 129 55.4001C129.4 55.9001 129.6 56.6001 129.5 57.2001C129.5 57.3001 129.5 57.4001 129.4 57.4001H126.8C126.8 57.7001 126.9 58 127 58.3C127.1 58.5 127.3 58.6001 127.4 58.7001C127.6 58.8001 127.8 58.9001 128 58.9001C128.4 58.9001 128.7 58.8 129 58.6L129.2 58.7001C129.1 58.7001 129.2 58.7001 129.2 58.7001ZM127.3 53.5C127.5 53.7 127.5 54.0001 127.3 54.2001C127.2 54.3001 127.1 54.3 127 54.3C126.7 54.3 126.5 54.1 126.5 53.8C126.5 53.5 126.7 53.3 127 53.3C127.1 53.3 127.2 53.4 127.3 53.5ZM126.8 56.9001H128.7C128.7 56.6001 128.7 56.4 128.6 56.1C128.5 55.8 128.2 55.5 127.8 55.6C127.4 55.6 127.1 55.8 127 56.1C126.8 56.4 126.8 56.7001 126.8 56.9001ZM128.4 54.2001C128.2 54.0001 128.2 53.7 128.4 53.5C128.6 53.3 128.9 53.3 129.1 53.5C129.3 53.7 129.3 54.0001 129.1 54.2001C129 54.3001 128.9 54.3 128.8 54.3C128.6 54.3 128.5 54.3001 128.4 54.2001Z" fill="#201600"/>
<path d="M132.1 60.9001V61.2001C132.1 61.3001 132.1 61.3001 132 61.3001H130.2C130.1 61.3001 130.1 61.3001 130.1 61.2001V60.9001C130.1 60.8001 130.1 60.8001 130.2 60.8001H130.7V56.3001C130.7 56.1001 130.7 56.0001 130.7 55.8001V55.7001H130.2C130.1 55.7001 130.1 55.7001 130.1 55.6001V55.3001C130.1 55.2001 130.1 55.2001 130.2 55.2001H131H131.1H131.2V55.3001V55.4001V55.5001V55.6001V55.7001C131.5 55.4001 132 55.2001 132.4 55.2001C132.9 55.2001 133.3 55.4001 133.5 55.8001C133.7 56.3001 133.9 56.8001 133.8 57.4001C133.8 57.8001 133.8 58.2001 133.7 58.6001C133.6 58.9001 133.5 59.1001 133.3 59.3001C133.2 59.4001 133 59.6001 132.8 59.6001C132.6 59.7001 132.5 59.7001 132.3 59.7001C131.9 59.7001 131.6 59.6001 131.3 59.3001V60.8001H132C132.1 60.7001 132.1 60.8001 132.1 60.9001C132.1 60.8001 132.1 60.9001 132.1 60.9001ZM131.4 56.1001V58.6001C131.7 58.8001 132 59.0001 132.3 59.0001C132.6 59.0001 132.9 58.8001 133 58.6001C133.1 58.2001 133.2 57.7001 133.2 57.3001C133.2 56.9001 133.2 56.5001 133.1 56.2001C133 55.9001 132.7 55.7001 132.4 55.7001C132.1 55.7001 131.8 55.8001 131.4 56.1001Z" fill="#201600"/>
<path d="M20.5 59.5C30.9934 59.5 39.5 50.9934 39.5 40.5C39.5 30.0066 30.9934 21.5 20.5 21.5C10.0066 21.5 1.5 30.0066 1.5 40.5C1.5 50.9934 10.0066 59.5 20.5 59.5Z" fill="url(#paint0_linear)"/>
<path d="M35.2 28.5C28.6 20.4 16.7 19.1 8.59999 25.7C7.59999 26.5001 6.69999 27.4 5.79999 28.5H35.2Z" fill="url(#paint1_linear)"/>
<path d="M5.79999 52.5C12.4 60.6 24.3 61.9 32.4 55.3C33.4 54.5 34.3 53.6 35.2 52.5H5.79999Z" fill="url(#paint2_linear)"/>
<path d="M1.5 40.5C1.5 41.8 1.7 43.2 1.9 44.5H39C39.3 43.2 39.4 41.8 39.4 40.5C39.4 39.2 39.2 37.8 39 36.5H1.9C1.7 37.8 1.5 39.2 1.5 40.5Z" fill="url(#paint3_linear)"/>
<defs>
<linearGradient id="paint0_linear" x1="1.46" y1="40.5" x2="39.46" y2="40.5" gradientUnits="userSpaceOnUse">
<stop stop-color="#F6A741"/>
<stop offset="1" stop-color="#FDDF3C"/>
</linearGradient>
<linearGradient id="paint1_linear" x1="6.28059" y1="30.4422" x2="33.7606" y2="23.0822" gradientUnits="userSpaceOnUse">
<stop stop-color="#1E0F00"/>
<stop offset="0.3" stop-color="#211204"/>
<stop offset="0.58" stop-color="#291D10"/>
<stop offset="0.87" stop-color="#372E23"/>
<stop offset="1" stop-color="#40382F"/>
</linearGradient>
<linearGradient id="paint2_linear" x1="7.20969" y1="57.9288" x2="34.6897" y2="50.5588" gradientUnits="userSpaceOnUse">
<stop stop-color="#1E0F00"/>
<stop offset="0.3" stop-color="#211204"/>
<stop offset="0.58" stop-color="#291D10"/>
<stop offset="0.87" stop-color="#372E23"/>
<stop offset="1" stop-color="#40382F"/>
</linearGradient>
<linearGradient id="paint3_linear" x1="2.1001" y1="45.4203" x2="38.7601" y2="35.5903" gradientUnits="userSpaceOnUse">
<stop stop-color="#1E0F00"/>
<stop offset="0.3" stop-color="#211204"/>
<stop offset="0.58" stop-color="#291D10"/>
<stop offset="0.87" stop-color="#372E23"/>
<stop offset="1" stop-color="#40382F"/>
</linearGradient>
</defs>
</svg>
