<svg width="35" height="35" viewBox="0 0 35 35" fill="none" xmlns="http://www.w3.org/2000/svg">
<path d="M29.7 8H6.3C5.58205 8 5 8.582 5 9.3V26.6333C5 27.3513 5.582 27.9333 6.3 27.9333H29.7C30.4179 27.9333 31 27.3513 31 26.6333V9.3C31 8.58205 30.418 8 29.7 8ZM30.1333 26.6334C30.1333 26.8727 29.9393 27.0667 29.7 27.0667H6.3C6.06067 27.0667 5.86668 26.8727 5.86668 26.6334V9.3C5.86668 9.06067 6.06067 8.86668 6.3 8.86668H29.7C29.9393 8.86668 30.1333 9.06067 30.1333 9.3V26.6334Z" fill="black"/>
<path d="M30.2058 8.4002C30.0913 8.3902 29.9775 8.4261 29.8895 8.50004L18.5577 18.2328C18.2353 18.5038 17.7647 18.5038 17.4423 18.2328L6.35398 8.7434C6.2354 8.64387 6.0727 8.61513 5.92721 8.66804C5.78172 8.72096 5.67549 8.8475 5.64858 9C5.62166 9.1525 5.67813 9.30773 5.7967 9.40727L16.885 18.8962C17.5294 19.4387 18.4706 19.4387 19.115 18.8962L30.4467 9.1639C30.5348 9.09002 30.5898 8.98419 30.5998 8.86968C30.6098 8.75517 30.5739 8.64137 30.5 8.55336C30.4262 8.46526 30.3203 8.41021 30.2058 8.4002Z" fill="black"/>
<path d="M13.3344 18.8366C13.181 18.8024 13.0211 18.8539 12.9165 18.9712L6.84986 25.4712C6.74007 25.5836 6.69975 25.7467 6.74454 25.8973C6.78933 26.048 6.91216 26.1625 7.06552 26.1968C7.21893 26.231 7.37879 26.1795 7.4834 26.0622L13.5501 19.5622C13.6599 19.4498 13.7002 19.2867 13.6554 19.136C13.6106 18.9854 13.4878 18.8708 13.3344 18.8366Z" fill="black"/>
<path d="M23.0835 18.9712C22.9789 18.8539 22.819 18.8024 22.6656 18.8366C22.5122 18.8708 22.3894 18.9854 22.3446 19.136C22.2998 19.2867 22.3401 19.4498 22.4499 19.5622L28.5166 26.0622C28.6811 26.2307 28.9501 26.237 29.1223 26.0763C29.2945 25.9156 29.3068 25.6469 29.1501 25.4711L23.0835 18.9712Z" fill="black"/>
</svg>
