<svg width="53" height="53" viewBox="0 0 53 53" fill="none" xmlns="http://www.w3.org/2000/svg">
<g clip-path="url(#clip0)">
<path d="M27.8107 25.1906C27.406 24.7859 26.7507 24.7859 26.346 25.1906C25.9423 25.5944 25.9423 26.2496 26.346 26.6544C26.7507 27.0581 27.406 27.0581 27.8107 26.6544C28.2144 26.2496 28.2144 25.5944 27.8107 25.1906Z" fill="url(#paint0_linear)"/>
<path d="M40.985 12.0149C38.9623 9.99232 35.6879 9.99221 33.6652 12.0149C31.6477 14.0323 31.6476 17.3158 33.6655 19.3349C35.6836 21.3518 38.9671 21.3526 40.985 19.3347C43.0075 17.3122 43.0079 14.0377 40.985 12.0149ZM39.5211 17.8707C38.3107 19.0812 36.3404 19.0812 35.1294 17.8709C33.9188 16.6595 33.9187 14.6892 35.1292 13.4788C36.3427 12.2653 38.3074 12.2651 39.5211 13.4788C40.7346 14.6922 40.7348 16.6571 39.5211 17.8707Z" fill="url(#paint1_linear)"/>
<path d="M52.6965 0.303207C52.4932 0.100006 52.2157 -0.0101344 51.9273 0.000734753C51.6933 0.0091195 46.1205 0.233127 39.4961 2.57454C34.1878 4.44879 29.7632 7.13222 26.3453 10.5503C25.5794 11.3162 24.834 12.1284 24.1209 12.9722C20.7414 10.9828 18.0332 11.6066 16.3211 12.5228C12.3792 14.6324 9.93921 20.3606 9.93921 24.4577C9.93952 24.8763 10.1918 25.2538 10.5785 25.414C10.7066 25.4671 10.8411 25.4929 10.9745 25.4929C11.2439 25.4929 11.5086 25.3876 11.7066 25.1897C13.7855 23.1108 16.3497 23.2408 17.1874 23.3509L17.5499 23.7134C16.8364 25.4111 16.2617 27.0992 15.8402 28.7411C15.688 29.3352 15.7394 29.964 15.9656 30.5391C14.9689 30.9984 14.0074 31.6728 13.1701 32.5101C10.5055 35.1748 9.96447 41.6687 9.94273 41.9438C9.91892 42.2458 10.0284 42.5431 10.2426 42.7573C10.4375 42.9521 10.7012 43.0605 10.9745 43.0605C11.0016 43.0605 11.0288 43.0594 11.056 43.0573C11.3312 43.0356 17.8253 42.4945 20.4899 39.83C21.3268 38.993 22.0011 38.0316 22.4604 37.0351C23.0693 37.2746 23.696 37.3041 24.2595 37.1597C25.9007 36.7383 27.5886 36.1637 29.2865 35.4502L29.649 35.8127C29.759 36.6505 29.889 39.2147 27.8102 41.2934C27.5143 41.5894 27.4257 42.0346 27.5859 42.4214C27.746 42.8082 28.1235 43.0604 28.5422 43.0604C32.6393 43.0604 38.3673 40.6204 40.477 36.6784C41.3932 34.9666 42.017 32.2584 40.0276 28.8787C40.871 28.1659 41.6832 27.4206 42.4495 26.6544C45.8675 23.2363 48.5509 18.8118 50.4251 13.5039C52.7666 6.87913 52.9906 1.30627 52.9989 1.07233C53.0093 0.785071 52.8997 0.506511 52.6965 0.303207ZM12.2536 22.2312C12.8966 19.1192 14.7644 15.7043 17.2984 14.3481C18.9918 13.4419 20.8428 13.5307 22.8108 14.608C21.1342 16.8131 19.6766 19.1888 18.4616 21.6975C18.4462 21.6879 18.2599 21.4537 17.9137 21.3756C17.7714 21.3434 15.0325 20.7543 12.2536 22.2312ZM19.026 38.3659C17.6027 39.7893 14.2638 40.54 12.1534 40.8465C12.46 38.736 13.2108 35.3972 14.634 33.974C15.4311 33.1769 16.3553 32.5726 17.2843 32.2322L20.7678 35.7157C20.4274 36.6447 19.8232 37.5689 19.026 38.3659ZM23.7453 35.1542C23.4457 35.2309 23.0987 35.1182 22.8408 34.8607C21.5016 33.5215 20.9777 32.9976 20.8133 32.8333C20.5119 32.5319 19.7727 31.7927 18.1399 30.1599C17.8817 29.9012 17.7691 29.5543 17.8456 29.2552C18.1772 27.964 18.6108 26.6392 19.1381 25.3017L27.6983 33.8619C26.3606 34.3893 25.036 34.8228 23.7453 35.1542ZM38.6519 35.7016C37.2956 38.2355 33.8809 40.1033 30.769 40.7463C31.7612 38.8792 31.9799 36.5023 31.6174 35.0611C31.5333 34.7263 31.3148 34.558 31.3026 34.5382C33.8111 33.3233 36.1867 31.8657 38.392 30.189C39.4693 32.1573 39.558 34.0085 38.6519 35.7016ZM40.9858 25.1905C40.053 26.1232 39.0486 27.0243 38.0004 27.8686C35.4806 29.8975 32.7072 31.6161 29.7483 32.9842L20.0158 23.2519C21.3839 20.2928 23.1024 17.5194 25.1311 14.9999C25.9762 13.951 26.8772 12.9465 27.8096 12.0142C30.8762 8.94747 34.834 6.50678 39.5763 4.74992L48.2501 13.4237C46.4934 18.1658 44.0527 22.1236 40.9858 25.1905ZM48.9949 11.2404L41.7595 4.00513C45.7015 2.78075 49.1309 2.32228 50.8426 2.15748C50.6777 3.86952 50.2191 7.29888 48.9949 11.2404Z" fill="url(#paint2_linear)"/>
<path d="M24.8825 42.7569C24.478 42.3527 23.8226 42.3529 23.4184 42.7571L20.491 45.6856C20.0869 46.0899 20.087 46.7454 20.4912 47.1495C20.8957 47.5536 21.5511 47.5536 21.9552 47.1493L24.8827 44.2208C25.2868 43.8165 25.2867 43.1611 24.8825 42.7569Z" fill="url(#paint3_linear)"/>
<path d="M10.2433 28.1178C9.83918 27.7135 9.18383 27.7135 8.77939 28.1176L5.85093 31.045C5.4466 31.4492 5.4465 32.1046 5.85062 32.509C6.25464 32.9131 6.91 32.9135 7.31454 32.5092L10.243 29.5818C10.6473 29.1776 10.6474 28.5222 10.2433 28.1178Z" fill="url(#paint4_linear)"/>
<path d="M17.5628 44.2219C17.1587 43.8177 16.5032 43.8177 16.0988 44.2218L9.08671 51.2329C8.68238 51.6371 8.68238 52.2926 9.08661 52.6968C9.49063 53.101 10.1462 53.1012 10.5505 52.6969L17.5627 45.6858C17.967 45.2816 17.967 44.6261 17.5628 44.2219Z" fill="url(#paint5_linear)"/>
<path d="M9.28151 44.2219C8.87739 43.8177 8.22182 43.8177 7.81759 44.2218L0.805459 51.2329C0.401127 51.6371 0.401127 52.2926 0.805355 52.6968C1.20938 53.101 1.86494 53.1012 2.26927 52.6969L9.28141 45.6858C9.68574 45.2816 9.68574 44.6261 9.28151 44.2219Z" fill="url(#paint6_linear)"/>
<path d="M8.77817 35.4372C8.37405 35.0331 7.71849 35.0331 7.31426 35.4373L0.303158 42.4495C-0.10107 42.8538 -0.10107 43.5091 0.303261 43.9135C0.707489 44.3177 1.36295 44.3177 1.76718 43.9134L8.77828 36.9012C9.1825 36.4969 9.1825 35.8416 8.77817 35.4372Z" fill="url(#paint7_linear)"/>
<path d="M32.2018 20.7983C31.7975 20.3941 31.1422 20.3941 30.7378 20.7983L29.2741 22.262C28.8699 22.6662 28.8699 23.3217 29.2741 23.726C29.6784 24.1302 30.3338 24.1302 30.7381 23.726L32.2018 22.2623C32.606 21.8581 32.606 21.2026 32.2018 20.7983Z" fill="url(#paint8_linear)"/>
</g>
<defs>
<linearGradient id="paint0_linear" x1="27.083" y1="26.9571" x2="27.083" y2="24.8871" gradientUnits="userSpaceOnUse">
<stop stop-color="#FDB02A"/>
<stop offset="1" stop-color="#FAD82C"/>
</linearGradient>
<linearGradient id="paint1_linear" x1="37.3503" y1="20.8479" x2="37.3503" y2="10.4979" gradientUnits="userSpaceOnUse">
<stop stop-color="#FDB02A"/>
<stop offset="1" stop-color="#FAD82C"/>
</linearGradient>
<linearGradient id="paint2_linear" x1="31.566" y1="43.0605" x2="31.5659" y2="4.73127e-06" gradientUnits="userSpaceOnUse">
<stop stop-color="#FDB02A"/>
<stop offset="1" stop-color="#FAD82C"/>
</linearGradient>
<linearGradient id="paint3_linear" x1="22.698" y1="47.4526" x2="22.698" y2="42.4539" gradientUnits="userSpaceOnUse">
<stop stop-color="#FDB02A"/>
<stop offset="1" stop-color="#FAD82C"/>
</linearGradient>
<linearGradient id="paint4_linear" x1="8.05817" y1="32.8122" x2="8.05817" y2="27.8146" gradientUnits="userSpaceOnUse">
<stop stop-color="#FDB02A"/>
<stop offset="1" stop-color="#FAD82C"/>
</linearGradient>
<linearGradient id="paint5_linear" x1="13.345" y1="53.0001" x2="13.345" y2="43.9187" gradientUnits="userSpaceOnUse">
<stop stop-color="#FDB02A"/>
<stop offset="1" stop-color="#FAD82C"/>
</linearGradient>
<linearGradient id="paint6_linear" x1="5.0638" y1="53.0001" x2="5.06379" y2="43.9187" gradientUnits="userSpaceOnUse">
<stop stop-color="#FDB02A"/>
<stop offset="1" stop-color="#FAD82C"/>
</linearGradient>
<linearGradient id="paint7_linear" x1="4.56108" y1="44.2166" x2="4.56108" y2="35.1342" gradientUnits="userSpaceOnUse">
<stop stop-color="#FDB02A"/>
<stop offset="1" stop-color="#FAD82C"/>
</linearGradient>
<linearGradient id="paint8_linear" x1="30.7459" y1="24.0292" x2="30.7459" y2="20.4951" gradientUnits="userSpaceOnUse">
<stop stop-color="#FDB02A"/>
<stop offset="1" stop-color="#FAD82C"/>
</linearGradient>
<clipPath id="clip0">
<rect width="53" height="53" fill="white"/>
</clipPath>
</defs>
</svg>
