<svg width="26" height="26" viewBox="0 0 26 26" fill="none" xmlns="http://www.w3.org/2000/svg">
<path d="M25.3177 20.0576L20.0552 16.5481C19.3874 16.1063 18.4922 16.2517 17.9985 16.8822L16.4656 18.8531C16.2686 19.1129 15.9105 19.1882 15.6255 19.0299L15.3339 18.8691C14.3673 18.3423 13.1645 17.6863 10.7413 15.2622C8.31799 12.838 7.66072 11.6344 7.13384 10.6695L6.97396 10.3779C6.81346 10.093 6.88739 9.73338 7.14725 9.5348L9.11686 8.00235C9.74707 7.50857 9.89263 6.61364 9.45136 5.94561L5.94188 0.683114C5.48964 0.00284794 4.58231 -0.201364 3.88219 0.219499L1.68161 1.54139C0.990173 1.94789 0.482893 2.60622 0.26614 3.37844C-0.526286 6.26573 0.0698479 11.2488 7.41031 18.5901C13.2495 24.4288 17.5965 25.999 20.5843 25.999C21.2719 26.0019 21.9569 25.9125 22.6207 25.733C23.3931 25.5165 24.0515 25.0092 24.4577 24.3175L25.7809 22.1183C26.2024 21.418 25.9983 20.5101 25.3177 20.0576ZM25.0344 21.6737L23.7142 23.8743C23.4225 24.3735 22.9489 24.7405 22.3927 24.8985C19.7272 25.6303 15.0705 25.0242 8.02335 17.977C0.97621 10.9299 0.370124 6.27355 1.10193 3.60768C1.26014 3.05079 1.62764 2.57662 2.12745 2.28447L4.32804 0.964299C4.63182 0.781514 5.02562 0.870114 5.22186 1.16531L7.12826 4.02748L8.72834 6.42735C8.91996 6.71711 8.857 7.10548 8.58364 7.3199L6.61356 8.85235C6.01403 9.31079 5.84282 10.1403 6.21195 10.7986L6.36838 11.0828C6.92212 12.0984 7.61056 13.3618 10.124 15.8748C12.6374 18.3878 13.9004 19.0762 14.9155 19.6299L15.2001 19.7868C15.8584 20.1558 16.6879 19.9847 17.1464 19.3852L18.6788 17.4151C18.8933 17.1419 19.2815 17.079 19.5714 17.2704L24.8334 20.7799C25.1288 20.9759 25.2174 21.37 25.0344 21.6737Z" fill="black"/>
<path d="M14.7326 4.33556C18.7986 4.34008 22.0936 7.63514 22.0982 11.7011C22.0982 11.9404 22.2921 12.1344 22.5314 12.1344C22.7707 12.1344 22.9647 11.9404 22.9647 11.7011C22.9596 7.15675 19.277 3.47403 14.7326 3.46906C14.4933 3.46906 14.2993 3.66301 14.2993 3.90231C14.2993 4.1416 14.4933 4.33556 14.7326 4.33556Z" fill="black"/>
<path d="M14.7326 6.9352C17.3635 6.9383 19.4954 9.07029 19.4985 11.7012C19.4985 11.9405 19.6926 12.1344 19.9318 12.1344C20.1711 12.1344 20.365 11.9405 20.365 11.7012C20.3614 8.5919 17.8418 6.07225 14.7326 6.0687C14.4933 6.0687 14.2993 6.26265 14.2993 6.50195C14.2993 6.74124 14.4933 6.9352 14.7326 6.9352Z" fill="black"/>
<path d="M14.7326 9.53481C15.9284 9.53623 16.8975 10.5053 16.8989 11.7012C16.8989 11.9405 17.0929 12.1344 17.3322 12.1344C17.5714 12.1344 17.7654 11.9405 17.7654 11.7012C17.7635 10.027 16.4068 8.67018 14.7326 8.6683C14.4933 8.6683 14.2993 8.86226 14.2993 9.10156C14.2993 9.34085 14.4933 9.53481 14.7326 9.53481Z" fill="black"/>
</svg>
