<svg width="35" height="35" viewBox="0 0 35 35" fill="none" xmlns="http://www.w3.org/2000/svg">
<path d="M23.4578 4H12.5422C11.49 4 10.6333 4.8567 10.6333 5.90883V28.0907C10.6333 29.1433 11.49 30 12.5422 30H23.4574C24.51 30 25.3667 29.1433 25.3667 28.0912V5.90883C25.3667 4.8567 24.51 4 23.4578 4ZM11.5 7.46667H24.5V23.9333H11.5V7.46667ZM12.5422 4.86667H23.4574C24.0324 4.86667 24.5 5.33423 24.5 5.90883V6.6H11.5V5.90883C11.5 5.33423 11.9676 4.86667 12.5422 4.86667ZM23.4578 29.1333H12.5422C11.9676 29.1333 11.5 28.6658 11.5 28.0912V24.8H24.5V28.0912C24.5 28.6658 24.0324 29.1333 23.4578 29.1333Z" fill="black"/>
<path d="M18 25.2333C17.0441 25.2333 16.2667 26.0107 16.2667 26.9666C16.2667 27.9225 17.0441 28.6999 18 28.6999C18.9559 28.6999 19.7333 27.9225 19.7333 26.9666C19.7333 26.0107 18.9559 25.2333 18 25.2333ZM18 27.8333C17.522 27.8333 17.1333 27.4446 17.1333 26.9666C17.1333 26.4886 17.522 26.0999 18 26.0999C18.478 26.0999 18.8667 26.4886 18.8667 26.9666C18.8667 27.4446 18.478 27.8333 18 27.8333Z" fill="black"/>
<path d="M16.2667 6.16672H18C18.2396 6.16672 18.4333 5.97302 18.4333 5.73338C18.4333 5.49375 18.2396 5.30005 18 5.30005H16.2667C16.027 5.30005 15.8333 5.49375 15.8333 5.73338C15.8333 5.97302 16.027 6.16672 16.2667 6.16672Z" fill="black"/>
<path d="M19.3 6.16672H19.7333C19.973 6.16672 20.1667 5.97302 20.1667 5.73338C20.1667 5.49375 19.973 5.30005 19.7333 5.30005H19.3C19.0604 5.30005 18.8667 5.49375 18.8667 5.73338C18.8667 5.97302 19.0604 6.16672 19.3 6.16672Z" fill="black"/>
</svg>
