<svg width="35" height="35" viewBox="0 0 35 35" fill="none" xmlns="http://www.w3.org/2000/svg">
<g clip-path="url(#clip0)">
<path d="M18.0001 22.6576C18.3946 22.6576 18.7145 22.3352 18.7145 21.9376C18.7145 21.54 18.3946 21.2177 18.0001 21.2177C17.6055 21.2177 17.2856 21.54 17.2856 21.9376C17.2856 22.3352 17.6055 22.6576 18.0001 22.6576Z" fill="black"/>
<path d="M29.5595 6H6.44054C6.0588 6.00104 5.69299 6.15432 5.42306 6.42635C5.15313 6.69838 5.00103 7.06703 5 7.45173V23.5388C5.00103 23.9235 5.15313 24.2922 5.42306 24.5642C5.69299 24.8362 6.0588 24.9895 6.44054 24.9906H14.5099V26.3007C14.5089 26.8523 14.291 27.3811 13.9039 27.7711C13.5168 28.1612 12.9921 28.3808 12.4447 28.3819H10.6958C10.632 28.3759 10.5677 28.3835 10.5069 28.404C10.4462 28.4245 10.3904 28.4576 10.343 28.5011C10.2957 28.5446 10.2579 28.5976 10.232 28.6567C10.2061 28.7157 10.1928 28.7796 10.1928 28.8441C10.1928 28.9087 10.2061 28.9726 10.232 29.0316C10.2579 29.0907 10.2957 29.1437 10.343 29.1872C10.3904 29.2307 10.4462 29.2637 10.5069 29.2843C10.5677 29.3048 10.632 29.3123 10.6958 29.3064H25.3003C25.3641 29.3123 25.4284 29.3048 25.4892 29.2843C25.5499 29.2637 25.6057 29.2307 25.6531 29.1872C25.7004 29.1437 25.7382 29.0907 25.7641 29.0316C25.79 28.9726 25.8033 28.9087 25.8033 28.8441C25.8033 28.7796 25.79 28.7157 25.7641 28.6567C25.7382 28.5976 25.7004 28.5446 25.6531 28.5011C25.6057 28.4576 25.5499 28.4245 25.4892 28.404C25.4284 28.3835 25.3641 28.3759 25.3003 28.3819H23.5592C23.0118 28.3808 22.4871 28.1612 22.1 27.7711C21.7129 27.3811 21.495 26.8523 21.494 26.3007V24.9906H29.5595C29.9412 24.9895 30.307 24.8362 30.5769 24.5642C30.8469 24.2922 30.999 23.9235 31 23.5388V7.45173C30.999 7.06703 30.8469 6.69838 30.5769 6.42635C30.307 6.15432 29.9412 6.00104 29.5595 6V6ZM14.6153 28.3858L14.7988 28.1458C15.2082 27.6195 15.4296 26.9694 15.4273 26.3007V24.9906H20.5727V26.3007C20.5704 26.9694 20.7918 27.6195 21.2012 28.1458L21.3847 28.3858H14.6153ZM30.0787 23.5388C30.0787 23.6786 30.0236 23.8127 29.9255 23.9116C29.8274 24.0105 29.6943 24.066 29.5556 24.066H6.44054C6.3018 24.066 6.16874 24.0105 6.07064 23.9116C5.97253 23.8127 5.91742 23.6786 5.91742 23.5388V20.1632H30.0787V23.5388ZM30.0787 19.2544H5.91742V7.45173C5.91742 7.31191 5.97253 7.17782 6.07064 7.07895C6.16874 6.98009 6.3018 6.92455 6.44054 6.92455H29.5595C29.6982 6.92455 29.8313 6.98009 29.9294 7.07895C30.0275 7.17782 30.0826 7.31191 30.0826 7.45173L30.0787 19.2544Z" fill="black"/>
<path d="M16.464 16.523V16.892C16.464 16.964 16.428 17 16.356 17H14.34C14.268 17 14.232 16.964 14.232 16.892V16.523C14.232 16.451 14.268 16.415 14.34 16.415H14.979V11.465H14.025V12.482C14.025 12.554 13.989 12.59 13.917 12.59H13.521C13.449 12.59 13.413 12.554 13.413 12.482V10.943C13.413 10.871 13.449 10.835 13.521 10.835H17.175C17.247 10.835 17.283 10.871 17.283 10.943V12.482C17.283 12.554 17.25 12.59 17.184 12.59H16.77C16.752 12.59 16.737 12.59 16.725 12.59C16.719 12.59 16.71 12.587 16.698 12.581C16.692 12.575 16.686 12.563 16.68 12.545C16.674 12.527 16.671 12.506 16.671 12.482V11.465H15.717V16.415H16.356C16.428 16.415 16.464 16.451 16.464 16.523ZM22.36 11.42L20.875 16.901C20.857 16.967 20.812 17 20.74 17H20.11C20.038 17 19.993 16.967 19.975 16.901L18.508 11.42H18.139C18.067 11.42 18.031 11.384 18.031 11.312V10.943C18.031 10.871 18.067 10.835 18.139 10.835H19.822C19.894 10.835 19.93 10.871 19.93 10.943V11.312C19.93 11.384 19.894 11.42 19.822 11.42H19.291L20.29 15.614C20.338 15.83 20.38 16.07 20.416 16.334H20.434C20.47 16.088 20.515 15.854 20.569 15.632L21.604 11.42H21.118C21.046 11.42 21.01 11.384 21.01 11.312V10.934C21.01 10.916 21.01 10.904 21.01 10.898C21.01 10.886 21.013 10.877 21.019 10.871C21.025 10.859 21.037 10.85 21.055 10.844C21.073 10.838 21.094 10.835 21.118 10.835H22.693C22.765 10.835 22.801 10.871 22.801 10.943V11.312C22.801 11.384 22.765 11.42 22.693 11.42H22.36Z" fill="black"/>
</g>
<defs>
<clipPath id="clip0">
<rect width="26" height="23.3103" fill="white" transform="translate(5 6)"/>
</clipPath>
</defs>
</svg>
