<svg width="35" height="35" viewBox="0 0 35 35" fill="none" xmlns="http://www.w3.org/2000/svg">
<path d="M27.7222 25.6168C29.7592 23.3211 31 20.3033 31 17C31 13.5631 29.657 10.4359 27.4712 8.1089V8.10845C27.4694 8.10576 27.4667 8.10486 27.4653 8.10262C25.1886 5.68238 21.9986 4.13314 18.4505 4.01166L18.4501 4.01121L18.1968 4.00448C18.1313 4.00224 18.0659 4 18 4C17.9341 4 17.8687 4.00224 17.8032 4.00448L17.5508 4.01121L17.5504 4.01166C14.0023 4.13314 10.8123 5.68238 8.53555 8.10262C8.53376 8.10486 8.53107 8.10576 8.52972 8.10845C8.52972 8.10845 8.52972 8.1089 8.52928 8.10934C6.34303 10.4359 5 13.5631 5 17C5 20.3033 6.24083 23.3211 8.27779 25.6168C8.28048 25.6208 8.28048 25.6253 8.28362 25.6293C8.29169 25.6405 8.30334 25.6459 8.31186 25.6562C10.6008 28.215 13.8848 29.8633 17.5499 29.9888L17.5504 29.9892L17.8028 29.996C17.8687 29.9978 17.9341 30 18 30C18.0659 30 18.1313 29.9978 18.1968 29.9955L18.4492 29.9888L18.4496 29.9883C22.1188 29.8624 25.4064 28.2109 27.6953 25.6468C27.7011 25.6392 27.7106 25.6369 27.7159 25.6289C27.7195 25.6253 27.7195 25.6208 27.7222 25.6168ZM5.90776 17.4483H11.2884C11.3391 19.3485 11.7102 21.195 12.371 22.9249C11.0961 23.3861 9.87724 24.0048 8.73503 24.7767C7.05534 22.7787 6.00997 20.2321 5.90776 17.4483ZM8.97979 8.94134C10.0951 9.66666 11.2826 10.2476 12.5212 10.6816C11.7627 12.5226 11.3431 14.5076 11.2884 16.5517H5.90776C6.0149 13.6348 7.1571 10.9788 8.97979 8.94134ZM30.0922 16.5517H24.7116C24.6569 14.5076 24.2373 12.5226 23.4788 10.6816C24.7174 10.2476 25.9049 9.66666 27.0202 8.94134C28.8429 10.9788 29.9851 13.6348 30.0922 16.5517ZM17.5517 10.7076C16.2558 10.6708 14.9836 10.4776 13.7544 10.1324C14.663 8.26848 15.946 6.5861 17.5517 5.18524V10.7076ZM17.5517 11.6041V16.5517H12.185C12.2401 14.6026 12.6489 12.7122 13.3801 10.9595C14.7276 11.3499 16.1267 11.566 17.5517 11.6041ZM18.4483 11.6041C19.8733 11.566 21.2724 11.3504 22.6204 10.9595C23.3515 12.7122 23.7603 14.6026 23.8155 16.5517H18.4483V11.6041ZM18.4483 10.7076V5.18524C20.054 6.5861 21.337 8.26848 22.2456 10.1324C21.0164 10.4776 19.7442 10.6708 18.4483 10.7076ZM23.1144 9.85986C22.2532 8.05555 21.0581 6.41172 19.5784 5.00279C22.2035 5.34617 24.5654 6.53321 26.3846 8.28328C25.3517 8.93866 24.2561 9.46583 23.1144 9.85986ZM12.8856 9.85986C11.7439 9.46583 10.6483 8.93866 9.6159 8.28328C11.4346 6.53321 13.797 5.34617 16.4221 5.00279C14.9419 6.41172 13.7468 8.05555 12.8856 9.85986ZM12.185 17.4483H17.5517V21.9481C16.0693 21.9875 14.6169 22.2188 13.2209 22.6389C12.5902 21.0004 12.2356 19.2499 12.185 17.4483ZM17.5517 22.8446V28.8148C15.833 27.3153 14.4855 25.4935 13.5692 23.4727C14.8544 23.0939 16.1894 22.8832 17.5517 22.8446ZM18.4483 28.8148V22.8446C19.8106 22.8827 21.1456 23.0939 22.4308 23.4722C21.5145 25.4935 20.167 27.3153 18.4483 28.8148ZM18.4483 21.9481V17.4483H23.815C23.7644 19.2499 23.4098 21.0004 22.7786 22.6393C21.3831 22.2188 19.9307 21.9875 18.4483 21.9481ZM24.7116 17.4483H30.0922C29.99 20.2321 28.9451 22.7787 27.265 24.7767C26.1228 24.0048 24.9039 23.3861 23.629 22.9249C24.2902 21.195 24.6609 19.3485 24.7116 17.4483ZM9.34424 25.4482C10.4049 24.7435 11.5341 24.1769 12.7139 23.7533C13.5858 25.7078 14.8374 27.4888 16.4216 28.9972C13.6643 28.6363 11.1965 27.3453 9.34424 25.4482ZM19.5784 28.9972C21.1626 27.4892 22.4142 25.7082 23.2861 23.7533C24.4659 24.1769 25.5947 24.7435 26.6558 25.4482C24.8035 27.3453 22.3357 28.6363 19.5784 28.9972Z" fill="black"/>
</svg>
