<svg width="35" height="35" viewBox="0 0 35 35" fill="none" xmlns="http://www.w3.org/2000/svg">
<path fill-rule="evenodd" clip-rule="evenodd" d="M30.3695 21C29.8098 22.7238 28.8989 24.2907 27.7222 25.6168C27.7211 25.6185 27.7205 25.6202 27.7198 25.622C27.7189 25.6244 27.718 25.6268 27.716 25.6289C27.7132 25.6331 27.7092 25.6357 27.7053 25.6383C27.7017 25.6407 27.6981 25.6432 27.6953 25.6468C25.4065 28.2109 22.1183 29.8628 18.4492 29.9888L18.1968 29.9955C18.1314 29.9978 18.0659 30 18 30C17.9453 30 17.8909 29.9985 17.8363 29.9969C17.8252 29.9966 17.814 29.9963 17.8028 29.996L17.55 29.9888C13.8849 29.8633 10.6008 28.215 8.3119 25.6562C8.30797 25.6515 8.30338 25.6477 8.29877 25.644C8.2934 25.6397 8.28801 25.6353 8.28366 25.6293C8.28197 25.6271 8.28119 25.6249 8.28042 25.6226C8.27975 25.6206 8.27908 25.6186 8.27783 25.6168C7.10122 24.2907 6.19025 22.7238 5.63062 21H6.57864C7.0673 22.3922 7.80367 23.6688 8.73507 24.7767C9.87728 24.0048 11.0961 23.3861 12.371 22.9249C12.1314 22.2976 11.9299 21.655 11.7679 21H12.6924C12.8385 21.5568 13.015 22.1038 13.221 22.6389C14.6169 22.2188 16.0693 21.9875 17.5518 21.9481V21H18.4483V21.9481C19.9308 21.9875 21.3832 22.2188 22.7787 22.6393C22.9848 22.1041 23.1614 21.5569 23.3076 21H24.2323C24.0704 21.655 23.8688 22.2976 23.629 22.9249C24.9039 23.3861 26.1228 24.0048 27.265 24.7767C28.1967 23.6688 28.933 22.3922 29.4216 21H30.3695ZM30.3694 13C29.7706 11.1558 28.7696 9.49118 27.4712 8.1089C27.4694 8.10621 27.4667 8.10486 27.4654 8.10262C25.1886 5.68238 21.9987 4.13314 18.4506 4.01166L18.1968 4.00448C18.1314 4.00224 18.0659 4 18 4C17.9341 4 17.8687 4.00224 17.8032 4.00448L17.5509 4.01121C14.0028 4.13269 10.8124 5.68238 8.53559 8.10262C8.53484 8.10356 8.53393 8.10426 8.53303 8.10496C8.53178 8.10593 8.53054 8.10688 8.52976 8.10845C8.52976 8.10845 8.52976 8.1089 8.52931 8.10934C7.23065 9.49135 6.22952 11.1559 5.63068 13H6.57857C7.10926 11.488 7.93212 10.1125 8.97983 8.94134C10.0951 9.66666 11.2826 10.2476 12.5212 10.6816C12.2119 11.4324 11.9589 12.2071 11.7641 13H12.6913C12.8738 12.303 13.104 11.6214 13.3801 10.9595C14.7276 11.3499 16.1267 11.566 17.5518 11.6041V13H18.4483V11.6041C19.8734 11.566 21.2725 11.3504 22.6204 10.9595C22.8965 11.6214 23.1267 12.303 23.3092 13H24.236C24.0411 12.2071 23.7882 11.4324 23.4789 10.6816C24.7175 10.2476 25.9049 9.66666 27.0202 8.94134C28.068 10.1125 28.8908 11.488 29.4215 13H30.3694ZM13.7544 10.1324C14.9836 10.4776 16.2558 10.6708 17.5518 10.7076V5.18524C15.946 6.5861 14.6631 8.26848 13.7544 10.1324ZM18.4483 5.18524V10.7076C19.7443 10.6708 21.0165 10.4776 22.2457 10.1324C21.337 8.26848 20.054 6.5861 18.4483 5.18524ZM19.5784 5.00279C21.0582 6.41172 22.2533 8.05555 23.1144 9.85986C24.2562 9.46583 25.3518 8.93866 26.3846 8.28328C24.5655 6.53321 22.2035 5.34617 19.5784 5.00279ZM9.61593 8.28328C10.6483 8.93866 11.7439 9.46583 12.8857 9.85986C13.7468 8.05555 14.9419 6.41172 16.4221 5.00279C13.797 5.34617 11.4346 6.53321 9.61593 8.28328ZM17.5518 28.8148V22.8446C16.1895 22.8832 14.8545 23.0939 13.5693 23.4727C14.4856 25.4935 15.8331 27.3153 17.5518 28.8148ZM18.4483 22.8446V28.8148C20.167 27.3153 21.5145 25.4935 22.4308 23.4722C21.1456 23.0939 19.8106 22.8827 18.4483 22.8446ZM12.714 23.7533C11.5341 24.1769 10.4049 24.7435 9.34428 25.4482C11.1966 27.3453 13.6643 28.6363 16.4217 28.9972C14.8375 27.4888 13.5859 25.7078 12.714 23.7533ZM23.2861 23.7533C22.4142 25.7082 21.1626 27.4892 19.5784 28.9972C22.3358 28.6363 24.8035 27.3453 26.6558 25.4482C25.5947 24.7435 24.466 24.1769 23.2861 23.7533Z" fill="black"/>
<path d="M8.69318 14.42L9.37718 18.317C9.39518 18.407 9.41318 18.62 9.43118 18.956L9.44918 19.28H9.46718L9.48518 19.01C9.50918 18.674 9.53918 18.425 9.57518 18.263L10.4392 13.943C10.4512 13.889 10.4632 13.859 10.4752 13.853C10.4872 13.841 10.5112 13.835 10.5472 13.835H11.0692H11.0782C11.0962 13.835 11.1082 13.838 11.1142 13.844C11.1262 13.844 11.1382 13.853 11.1502 13.871C11.1622 13.883 11.1712 13.907 11.1772 13.943L11.9242 18.389C11.9722 18.653 11.9992 18.893 12.0052 19.109L12.0142 19.316H12.0322L12.0412 19.019C12.0412 18.773 12.0592 18.56 12.0952 18.38L12.8242 14.42H12.2662C12.1942 14.42 12.1582 14.384 12.1582 14.312V13.943C12.1582 13.871 12.1942 13.835 12.2662 13.835H13.9312C14.0032 13.835 14.0392 13.871 14.0392 13.943V14.312C14.0392 14.384 14.0032 14.42 13.9312 14.42H13.5442L12.3922 19.901C12.3802 19.967 12.3502 20 12.3022 20H11.6272C11.5972 20 11.5762 19.994 11.5642 19.982C11.5522 19.97 11.5432 19.94 11.5372 19.892L10.7812 14.978H10.7632L9.82718 19.892C9.79118 19.958 9.76118 19.994 9.73718 20H9.09818C9.06218 20 9.04118 19.994 9.03518 19.982C9.02918 19.97 9.02018 19.94 9.00818 19.892L7.96418 14.42H7.58618C7.51418 14.42 7.47818 14.384 7.47818 14.312V13.943C7.47818 13.871 7.51418 13.835 7.58618 13.835H9.26918C9.34118 13.835 9.37718 13.871 9.37718 13.943V14.312C9.37718 14.384 9.34118 14.42 9.26918 14.42H8.69318ZM15.4344 14.42L16.1184 18.317C16.1364 18.407 16.1544 18.62 16.1724 18.956L16.1904 19.28H16.2084L16.2264 19.01C16.2504 18.674 16.2804 18.425 16.3164 18.263L17.1804 13.943C17.1924 13.889 17.2044 13.859 17.2164 13.853C17.2284 13.841 17.2524 13.835 17.2884 13.835H17.8104H17.8194C17.8374 13.835 17.8494 13.838 17.8554 13.844C17.8674 13.844 17.8794 13.853 17.8914 13.871C17.9034 13.883 17.9124 13.907 17.9184 13.943L18.6654 18.389C18.7134 18.653 18.7404 18.893 18.7464 19.109L18.7554 19.316H18.7734L18.7824 19.019C18.7824 18.773 18.8004 18.56 18.8364 18.38L19.5654 14.42H19.0074C18.9354 14.42 18.8994 14.384 18.8994 14.312V13.943C18.8994 13.871 18.9354 13.835 19.0074 13.835H20.6724C20.7444 13.835 20.7804 13.871 20.7804 13.943V14.312C20.7804 14.384 20.7444 14.42 20.6724 14.42H20.2854L19.1334 19.901C19.1214 19.967 19.0914 20 19.0434 20H18.3684C18.3384 20 18.3174 19.994 18.3054 19.982C18.2934 19.97 18.2844 19.94 18.2784 19.892L17.5224 14.978H17.5044L16.5684 19.892C16.5324 19.958 16.5024 19.994 16.4784 20H15.8394C15.8034 20 15.7824 19.994 15.7764 19.982C15.7704 19.97 15.7614 19.94 15.7494 19.892L14.7054 14.42H14.3274C14.2554 14.42 14.2194 14.384 14.2194 14.312V13.943C14.2194 13.871 14.2554 13.835 14.3274 13.835H16.0104C16.0824 13.835 16.1184 13.871 16.1184 13.943V14.312C16.1184 14.384 16.0824 14.42 16.0104 14.42H15.4344ZM22.1756 14.42L22.8596 18.317C22.8776 18.407 22.8956 18.62 22.9136 18.956L22.9316 19.28H22.9496L22.9676 19.01C22.9916 18.674 23.0216 18.425 23.0576 18.263L23.9216 13.943C23.9336 13.889 23.9456 13.859 23.9576 13.853C23.9696 13.841 23.9936 13.835 24.0296 13.835H24.5516H24.5606C24.5786 13.835 24.5906 13.838 24.5966 13.844C24.6086 13.844 24.6206 13.853 24.6326 13.871C24.6446 13.883 24.6536 13.907 24.6596 13.943L25.4066 18.389C25.4546 18.653 25.4816 18.893 25.4876 19.109L25.4966 19.316H25.5146L25.5236 19.019C25.5236 18.773 25.5416 18.56 25.5776 18.38L26.3066 14.42H25.7486C25.6766 14.42 25.6406 14.384 25.6406 14.312V13.943C25.6406 13.871 25.6766 13.835 25.7486 13.835H27.4136C27.4856 13.835 27.5216 13.871 27.5216 13.943V14.312C27.5216 14.384 27.4856 14.42 27.4136 14.42H27.0266L25.8746 19.901C25.8626 19.967 25.8326 20 25.7846 20H25.1096C25.0796 20 25.0586 19.994 25.0466 19.982C25.0346 19.97 25.0256 19.94 25.0196 19.892L24.2636 14.978H24.2456L23.3096 19.892C23.2736 19.958 23.2436 19.994 23.2196 20H22.5806C22.5446 20 22.5236 19.994 22.5176 19.982C22.5116 19.97 22.5026 19.94 22.4906 19.892L21.4466 14.42H21.0686C20.9966 14.42 20.9606 14.384 20.9606 14.312V13.943C20.9606 13.871 20.9966 13.835 21.0686 13.835H22.7516C22.8236 13.835 22.8596 13.871 22.8596 13.943V14.312C22.8596 14.384 22.8236 14.42 22.7516 14.42H22.1756Z" fill="black"/>
</svg>
